<?xml version="1.0" encoding="UTF-8"?>
<svg id="Layer_1" data-name="Layer 1" xmlns="http://www.w3.org/2000/svg" viewBox="0 0 355.11 126.82">
  <defs>
    <style>
      .cls-1 {
        stroke: #38a169;
        stroke-miterlimit: 10;
        stroke-width: .5px;
      }

      .cls-1, .cls-2 {
        fill: #38a169;
      }
    </style>
  </defs>
  <g>
    <path d="m18.63,25.1v50.82h28.08v9.2H7.64V25.1h10.99Z"/>
    <path d="m91.39,69.82h-22.6l-5.88,15.29h-11.71l23.82-60.02h10.05l23.82,60.02h-11.62l-5.88-15.29Zm-11.39-30.28c-2.1,6.28-3.97,11.52-5.62,15.74l-2.05,5.34h15.51l-2.05-5.34c-1.63-4.25-3.5-9.5-5.62-15.74h-.18Z"/>
    <path d="m148.26,69.02c1.32-4.72,2.94-9.79,4.89-15.21l10.36-28.71h15.43v60.02h-10.99v-30.41c0-4.46.18-9.63.54-15.52h-.4c-.51,1.7-1.11,3.62-1.79,5.74-.69,2.12-1.41,4.22-2.15,6.28l-12.42,33.91h-7.09l-12.42-33.91c-.75-2.06-1.47-4.16-2.15-6.28-.69-2.12-1.29-4.04-1.79-5.74h-.4c.36,5.53.54,10.69.54,15.48v30.46h-10.99V25.1h15.34l10.36,28.57c1.73,4.75,3.36,9.87,4.89,15.34h.27Z"/>
    <path d="m236.76,41.07c0,2.6-.58,4.99-1.75,7.15-1.17,2.17-3.09,3.97-5.79,5.41v.18c1.5.51,2.86,1.16,4.1,1.95,1.24.79,2.3,1.73,3.19,2.83.88,1.09,1.57,2.33,2.06,3.7.49,1.38.74,2.92.74,4.62,0,1.47-.23,3.04-.7,4.71s-1.28,3.3-2.44,4.87c-1.17,1.57-2.72,3.01-4.67,4.33-1.94,1.32-4.4,2.36-7.36,3.14-.75.18-1.56.34-2.45.49-.88.15-1.86.28-2.94.38-1.08.11-2.27.18-3.59.22s-2.8.07-4.44.07h-17.45V25.1h20.86c4.46,0,8.04.45,10.76,1.35,2.03.66,3.8,1.52,5.29,2.58,1.5,1.06,2.73,2.24,3.7,3.54.97,1.3,1.69,2.68,2.15,4.13.46,1.45.7,2.91.7,4.37Zm-22.56,8.75c2.99,0,5.22-.3,6.68-.9,1.64-.69,2.82-1.64,3.52-2.85.7-1.21,1.05-2.58,1.05-4.1s-.4-3-1.21-4.24c-.81-1.24-2.18-2.16-4.13-2.76-.81-.24-1.75-.41-2.83-.52-1.08-.1-2.41-.16-3.99-.16h-9.02v15.52h9.91Zm-9.91,9.19v16.91h7.18c1.91,0,3.56-.05,4.93-.16,1.38-.1,2.56-.28,3.54-.52,1.53-.33,2.8-.77,3.81-1.32,1.02-.55,1.84-1.18,2.47-1.88.63-.7,1.08-1.48,1.35-2.33.27-.85.4-1.76.4-2.71,0-1.67-.46-3.14-1.39-4.4-.93-1.26-2.38-2.2-4.35-2.83-.87-.27-1.88-.46-3.05-.58-1.17-.12-2.66-.18-4.49-.18h-10.41Z"/>
    <path d="m250.53,85.12V25.1h15.88c1.4,0,2.83.04,4.28.13,1.45.09,2.86.22,4.24.4,1.38.18,2.71.4,3.99.65,1.29.25,2.47.56,3.54.92,3.2,1.02,6.03,2.39,8.48,4.13,2.45,1.73,4.51,3.78,6.17,6.15,1.66,2.36,2.92,5,3.77,7.92.85,2.92,1.28,6.08,1.28,9.49,0,3.23-.36,6.26-1.08,9.08s-1.81,5.4-3.27,7.74c-1.46,2.33-3.31,4.39-5.54,6.17-2.23,1.78-4.87,3.24-7.92,4.37-2.54.96-5.43,1.68-8.66,2.15-3.23.48-6.86.72-10.9.72h-14.26Zm15.52-9.2c6.43,0,11.45-.88,15.07-2.65,3.2-1.58,5.62-3.89,7.27-6.91,1.64-3.02,2.47-6.88,2.47-11.57,0-2.45-.27-4.66-.81-6.64s-1.32-3.73-2.33-5.27c-1.02-1.54-2.25-2.86-3.7-3.97-1.45-1.11-3.09-2.02-4.91-2.74-1.7-.66-3.6-1.14-5.7-1.44-2.09-.3-4.44-.45-7.04-.45h-4.84v41.62h4.53Z"/>
    <path class="cls-2" d="m317.5,19.05c2.42,0,4.52.37,6.3,1.12,1.78.75,3.37,1.93,4.78,3.54s2.7,3.65,3.88,6.1c1.18,2.45,2.42,5.41,3.7,8.88l17.13,46.42h-11.3l-6.01-17.54c-1.94-5.71-3.3-9.96-4.08-12.74h-.18c-.99,2.78-2.63,7.03-4.93,12.74l-7.18,17.54h-11.62l18.48-42.3c-1.83-5.26-3.3-8.75-4.42-10.47-1.12-1.72-2.21-2.9-3.25-3.54-1.05-.64-2.3-.96-3.77-.96-.69,0-1.41.06-2.18.18-.76.12-1.47.28-2.13.49v-8.43c.99-.33,2.05-.58,3.18-.76,1.14-.18,2.33-.27,3.59-.27Z"/>
  </g>
  <g>
    <path class="cls-1" d="m16.39,108.27c0-.36-.09-.66-.27-.88-.18-.22-.42-.41-.73-.55-.31-.14-.65-.26-1.03-.35-.38-.09-.78-.18-1.2-.26-.56-.12-1.09-.27-1.6-.43s-.95-.4-1.34-.7c-.39-.3-.69-.67-.92-1.13s-.34-1.03-.34-1.71c0-.76.13-1.42.4-1.97.26-.56.62-1.02,1.08-1.39.45-.37.98-.64,1.6-.82.61-.18,1.3-.27,2.06-.27s1.53.08,2.3.22c.77.15,1.43.34,1.99.58v2.25c-.74-.29-1.45-.5-2.14-.64-.68-.13-1.32-.2-1.92-.2-.86,0-1.53.16-2,.47-.47.31-.7.79-.7,1.41,0,.36.08.66.23.9.15.24.36.43.63.58.26.15.57.28.91.37.34.09.71.18,1.09.26.61.13,1.19.28,1.74.44.55.17,1.04.4,1.47.7s.77.69,1.02,1.17c.25.48.37,1.1.37,1.85s-.14,1.44-.43,2c-.29.56-.69,1.03-1.21,1.4-.52.37-1.16.64-1.91.82-.75.18-1.57.27-2.46.27-.78,0-1.54-.08-2.3-.23-.75-.15-1.38-.37-1.88-.65v-2.22c.71.31,1.4.53,2.07.67.67.14,1.36.21,2.08.21.41,0,.82-.03,1.22-.1.4-.07.76-.18,1.08-.35s.57-.39.77-.67c.19-.28.29-.63.29-1.04Zm-1.17-10.98h-2.21l-2.31-2.64h2.22l1.18,1.35h.04l1.19-1.35h2.21l-2.31,2.64Z"/>
    <path class="cls-1" d="m22,112.38v-14.32h2.62v6.52h.04l5.41-6.52h3.25l-5.97,7.1,6.47,7.23h-3.36l-5.79-6.47h-.04v6.47h-2.62Z"/>
    <path class="cls-1" d="m48.1,105.22c0,1.09-.16,2.09-.47,3-.31.91-.76,1.69-1.36,2.35-.6.66-1.33,1.17-2.19,1.53-.87.36-1.85.55-2.96.55s-2.09-.18-2.96-.55-1.6-.87-2.19-1.53c-.6-.66-1.05-1.44-1.36-2.35-.31-.91-.47-1.91-.47-3s.16-2.09.47-3c.31-.91.76-1.69,1.36-2.35.6-.66,1.33-1.17,2.19-1.53s1.85-.55,2.96-.55,2.09.18,2.96.55c.87.36,1.6.87,2.19,1.53.6.66,1.05,1.44,1.36,2.35.31.91.47,1.91.47,3Zm-2.71,0c0-.87-.11-1.63-.32-2.29-.21-.65-.51-1.2-.89-1.63-.38-.43-.83-.76-1.35-.97s-1.09-.32-1.71-.32-1.19.11-1.71.32-.97.54-1.35.97c-.38.44-.67.98-.89,1.63-.21.65-.32,1.42-.32,2.29s.11,1.63.32,2.29c.21.65.51,1.2.89,1.63.38.43.83.76,1.35.97s1.09.33,1.71.33,1.19-.11,1.71-.33.97-.54,1.35-.97c.38-.43.67-.97.89-1.63.21-.65.32-1.42.32-2.29Z"/>
    <path class="cls-1" d="m53.5,98.05v12.13h6.7v2.19h-9.32v-14.32h2.62Z"/>
    <path class="cls-1" d="m70.87,108.73h-5.39l-1.4,3.65h-2.79l5.68-14.32h2.4l5.68,14.32h-2.77l-1.4-3.65Zm-2.72-7.23c-.5,1.5-.95,2.75-1.34,3.76l-.49,1.27h3.7l-.49-1.27c-.39-1.02-.83-2.27-1.34-3.76h-.04Z"/>
    <path class="cls-1" d="m84.21,110.18h7.04v2.19h-9.67v-14.32h9.28v2.19h-6.66v3.7h5.72v2.19h-5.72v4.04Z"/>
    <path class="cls-1" d="m94.04,112.38v-14.32h2.62v6.52h.04l5.41-6.52h3.25l-5.97,7.1,6.47,7.23h-3.36l-5.79-6.47h-.04v6.47h-2.62Z"/>
    <path class="cls-1" d="m120.14,105.22c0,1.09-.16,2.09-.47,3-.31.91-.76,1.69-1.36,2.35-.6.66-1.33,1.17-2.19,1.53-.87.36-1.85.55-2.96.55s-2.09-.18-2.96-.55-1.6-.87-2.19-1.53c-.6-.66-1.05-1.44-1.36-2.35-.31-.91-.47-1.91-.47-3s.16-2.09.47-3c.31-.91.76-1.69,1.36-2.35.6-.66,1.33-1.17,2.19-1.53s1.85-.55,2.96-.55,2.09.18,2.96.55c.87.36,1.6.87,2.19,1.53.6.66,1.05,1.44,1.36,2.35.31.91.47,1.91.47,3Zm-2.71,0c0-.87-.11-1.63-.32-2.29-.21-.65-.51-1.2-.89-1.63-.38-.43-.83-.76-1.35-.97s-1.09-.32-1.71-.32-1.19.11-1.71.32-.97.54-1.35.97c-.38.44-.67.98-.89,1.63-.21.65-.32,1.42-.32,2.29s.11,1.63.32,2.29c.21.65.51,1.2.89,1.63.38.43.83.76,1.35.97s1.09.33,1.71.33,1.19-.11,1.71-.33.97-.54,1.35-.97c.38-.43.67-.97.89-1.63.21-.65.32-1.42.32-2.29Z"/>
    <path class="cls-1" d="m130.39,104.71c1.03,1.46,1.86,2.76,2.5,3.9h.06c-.09-1.86-.13-3.22-.13-4.07v-6.49h2.62v14.32h-2.75l-4.67-6.59c-.82-1.14-1.67-2.47-2.55-3.97h-.06c.09,1.75.13,3.12.13,4.08v6.49h-2.62v-14.32h2.75l4.71,6.66Z"/>
    <path class="cls-1" d="m152.19,105.22c0,1.09-.16,2.09-.47,3-.31.91-.76,1.69-1.36,2.35-.6.66-1.33,1.17-2.19,1.53-.87.36-1.85.55-2.96.55s-2.09-.18-2.96-.55-1.6-.87-2.19-1.53c-.6-.66-1.05-1.44-1.36-2.35-.31-.91-.47-1.91-.47-3s.16-2.09.47-3c.31-.91.76-1.69,1.36-2.35.6-.66,1.33-1.17,2.19-1.53s1.85-.55,2.96-.55,2.09.18,2.96.55c.87.36,1.6.87,2.19,1.53.6.66,1.05,1.44,1.36,2.35.31.91.47,1.91.47,3Zm-2.71,0c0-.87-.11-1.63-.32-2.29-.21-.65-.51-1.2-.89-1.63-.38-.43-.83-.76-1.35-.97s-1.09-.32-1.71-.32-1.19.11-1.71.32-.97.54-1.35.97c-.38.44-.67.98-.89,1.63-.21.65-.32,1.42-.32,2.29s.11,1.63.32,2.29c.21.65.51,1.2.89,1.63.38.43.83.76,1.35.97s1.09.33,1.71.33,1.19-.11,1.71-.33.97-.54,1.35-.97c.38-.43.67-.97.89-1.63.21-.65.32-1.42.32-2.29Z"/>
    <path class="cls-1" d="m162.34,108.53c.31-1.13.7-2.34,1.17-3.63l2.47-6.85h3.68v14.32h-2.62v-7.26c0-1.06.04-2.3.13-3.7h-.1c-.12.41-.26.86-.43,1.37-.16.51-.34,1.01-.51,1.5l-2.97,8.09h-1.69l-2.96-8.09c-.18-.49-.35-.99-.51-1.5s-.31-.96-.43-1.37h-.1c.09,1.32.13,2.55.13,3.69v7.27h-2.62v-14.32h3.66l2.47,6.82c.41,1.13.8,2.35,1.17,3.66h.06Z"/>
    <path class="cls-1" d="m173.09,112.38v-14.32h2.62v14.32h-2.62Z"/>
    <path class="cls-1" d="m179.14,112.38v-14.32h2.62v6.52h.04l5.41-6.52h3.25l-5.97,7.1,6.47,7.23h-3.36l-5.79-6.47h-.04v6.47h-2.62Z"/>
    <path class="cls-1" d="m198.24,104.22l3.81-6.17h2.91l-5.43,8.55v5.77h-2.62v-5.77l-5.43-8.55h2.91l3.81,6.17h.03Z"/>
    <path class="cls-1" d="m218.65,108.73h-5.39l-1.4,3.65h-2.79l5.68-14.32h2.4l5.68,14.32h-2.77l-1.4-3.65Zm-2.72-7.23c-.5,1.5-.95,2.75-1.34,3.76l-.49,1.27h3.7l-.49-1.27c-.39-1.02-.83-2.27-1.34-3.76h-.04Z"/>
    <path class="cls-1" d="m229.37,112.38v-14.32h2.62v14.32h-2.62Z"/>
    <path class="cls-1" d="m242.88,104.71c1.03,1.46,1.86,2.76,2.5,3.9h.06c-.09-1.86-.13-3.22-.13-4.07v-6.49h2.62v14.32h-2.75l-4.67-6.59c-.82-1.14-1.67-2.47-2.55-3.97h-.06c.09,1.75.13,3.12.13,4.08v6.49h-2.62v-14.32h2.75l4.71,6.66Z"/>
    <path class="cls-1" d="m254,112.38h-2.62v-14.32h9.12v2.19h-6.5v3.7h5.56v2.19h-5.56v6.23Z"/>
    <path class="cls-1" d="m276.11,105.22c0,1.09-.16,2.09-.46,3-.31.91-.76,1.69-1.36,2.35-.6.66-1.33,1.17-2.19,1.53s-1.85.55-2.96.55-2.09-.18-2.96-.55-1.6-.87-2.19-1.53c-.6-.66-1.05-1.44-1.36-2.35-.31-.91-.47-1.91-.47-3s.16-2.09.47-3c.31-.91.76-1.69,1.36-2.35.6-.66,1.33-1.17,2.19-1.53s1.85-.55,2.96-.55,2.09.18,2.96.55,1.6.87,2.19,1.53c.6.66,1.05,1.44,1.36,2.35.31.91.46,1.91.46,3Zm-2.71,0c0-.87-.11-1.63-.32-2.29-.21-.65-.51-1.2-.89-1.63-.38-.43-.83-.76-1.35-.97-.52-.21-1.09-.32-1.71-.32s-1.19.11-1.71.32c-.52.21-.97.54-1.35.97-.38.44-.67.98-.89,1.63-.21.65-.32,1.42-.32,2.29s.11,1.63.32,2.29c.21.65.51,1.2.89,1.63s.83.76,1.35.97c.52.22,1.09.33,1.71.33s1.19-.11,1.71-.33c.52-.22.97-.54,1.35-.97.38-.43.67-.97.89-1.63s.32-1.42.32-2.29Z"/>
    <path class="cls-1" d="m289.49,102.36c0,1-.28,1.85-.83,2.54-.55.7-1.41,1.21-2.56,1.55v.04l4.26,5.89h-3.15l-3.9-5.54h-1.8v5.54h-2.62v-14.32h4.36c.72,0,1.39.04,2.01.12s1.15.21,1.6.37c.84.32,1.49.8,1.95,1.43.46.63.68,1.43.68,2.38Zm-6.68,2.28c.6,0,1.11-.03,1.53-.08.42-.05.77-.13,1.05-.24.53-.2.89-.47,1.1-.82.2-.35.31-.74.31-1.19,0-.39-.08-.73-.24-1.02-.16-.3-.43-.53-.82-.7-.25-.11-.56-.2-.94-.25-.38-.05-.85-.08-1.4-.08h-1.87v4.39h1.29Z"/>
    <path class="cls-1" d="m300.03,108.53c.31-1.13.7-2.34,1.17-3.63l2.47-6.85h3.68v14.32h-2.62v-7.26c0-1.06.04-2.3.13-3.7h-.1c-.12.41-.26.86-.43,1.37s-.33,1.01-.51,1.5l-2.96,8.09h-1.69l-2.97-8.09c-.18-.49-.35-.99-.51-1.5s-.31-.96-.43-1.37h-.1c.09,1.32.13,2.55.13,3.69v7.27h-2.62v-14.32h3.66l2.47,6.82c.41,1.13.8,2.35,1.17,3.66h.06Z"/>
    <path class="cls-1" d="m318.97,108.73h-5.39l-1.4,3.65h-2.79l5.68-14.32h2.4l5.68,14.32h-2.77l-1.4-3.65Zm-2.72-7.23c-.5,1.5-.95,2.75-1.34,3.76l-.49,1.27h3.7l-.49-1.27c-.39-1.02-.83-2.27-1.34-3.76h-.04Z"/>
    <path class="cls-1" d="m329.86,112.38h-2.62v-12.13h-4.62v-2.19h11.86v2.19h-4.61v12.13Z"/>
    <path class="cls-1" d="m336.51,112.38v-14.32h2.62v14.32h-2.62Z"/>
    <path class="cls-1" d="m345.18,110.18h7.04v2.19h-9.67v-14.32h9.28v2.19h-6.66v3.7h5.72v2.19h-5.72v4.04Z"/>
  </g>
</svg>